<svg width="22" height="24" viewBox="0 0 22 24" fill="none" xmlns="http://www.w3.org/2000/svg">
<path d="M19.7203 7.99776L6.84029 0.611089C6.14333 0.208635 5.35228 -0.00219332 4.54748 1.72055e-05C3.74267 0.00222773 2.95279 0.217399 2.25806 0.623675C1.56332 1.02995 0.988491 1.61286 0.591946 2.31319C0.195401 3.01353 -0.00873063 3.80633 0.000286282 4.61109V19.4378C0.000286282 20.6471 0.480713 21.807 1.33588 22.6622C2.19105 23.5173 3.3509 23.9978 4.56029 23.9978C5.36087 23.9964 6.14707 23.7849 6.84029 23.3844L19.7203 15.9978C20.4124 15.5972 20.9869 15.0217 21.3864 14.329C21.7858 13.6363 21.9961 12.8507 21.9961 12.0511C21.9961 11.2515 21.7858 10.4659 21.3864 9.77318C20.9869 9.08046 20.4124 8.50497 19.7203 8.10442V7.99776ZM18.387 13.5844L5.50695 21.0778C5.21827 21.2414 4.89211 21.3274 4.56029 21.3274C4.22846 21.3274 3.9023 21.2414 3.61362 21.0778C3.32575 20.9116 3.08671 20.6725 2.92053 20.3846C2.75435 20.0967 2.6669 19.7702 2.66695 19.4378V4.55776C2.6669 4.22535 2.75435 3.89879 2.92053 3.61091C3.08671 3.32302 3.32575 3.08396 3.61362 2.91776C3.90349 2.75663 4.22868 2.66961 4.56029 2.66442C4.89166 2.67122 5.21647 2.75814 5.50695 2.91776L18.387 10.3578C18.6749 10.5239 18.9141 10.7629 19.0804 11.0508C19.2466 11.3387 19.3342 11.6653 19.3342 11.9978C19.3342 12.3302 19.2466 12.6568 19.0804 12.9447C18.9141 13.2326 18.6749 13.4716 18.387 13.6378V13.5844Z" fill="#A52B2B"/>
<path d="M18.387 13.5844L5.50695 21.0778C5.21827 21.2414 4.89211 21.3274 4.56029 21.3274C4.22846 21.3274 3.9023 21.2414 3.61362 21.0778C3.32575 20.9116 3.08671 20.6725 2.92053 20.3846C2.75435 20.0967 2.6669 19.7702 2.66695 19.4378V4.55776C2.6669 4.22535 2.75435 3.89879 2.92053 3.61091C3.08671 3.32302 3.32575 3.08396 3.61362 2.91776C3.90349 2.75663 4.22868 2.66961 4.56029 2.66442C4.89166 2.67122 5.21647 2.75814 5.50695 2.91776L18.387 10.3578C18.6749 10.5239 18.9141 10.7629 19.0804 11.0508C19.2466 11.3387 19.3342 11.6653 19.3342 11.9978C19.3342 12.3302 19.2466 12.6568 19.0804 12.9447C18.9141 13.2326 18.6749 13.4716 18.387 13.6378V13.5844Z" fill="#A52B2B"/>
</svg>
